<svg xmlns="http://www.w3.org/2000/svg" xmlns:xlink="http://www.w3.org/1999/xlink" width="48" height="48" viewBox="0 0 48 48">
  <defs>
    <clipPath id="clip-path">
      <rect id="Rectangle_9216" data-name="Rectangle 9216" width="48" height="48" transform="translate(9 2714)" fill="#f7b00a"/>
    </clipPath>
  </defs>
  <g id="Mask_Group_160" data-name="Mask Group 160" transform="translate(-9 -2714)" clip-path="url(#clip-path)">
    <g id="ominphobic-icon2" transform="translate(9 2714)">
      <g id="Group_39343" data-name="Group 39343">
        <path id="Path_51482" data-name="Path 51482" d="M46.654,7.222a1.561,1.561,0,0,0-1.318-.3,17.873,17.873,0,0,1-3.544.309A23.921,23.921,0,0,1,25.071.427a1.557,1.557,0,0,0-2.143,0l-.055.051-.011.01A23.919,23.919,0,0,1,6.205,7.229a18.768,18.768,0,0,1-3.437-.287,1.6,1.6,0,0,0-1.307.2,1.55,1.55,0,0,0-.7,1.3c0,10.16,2.045,20.908,7.76,29.253l.063.092C12.014,42.76,17.9,48,24,48c4.984,0,10.747-3.709,15.041-9.68,3.741-5.2,8.2-14.609,8.2-29.882A1.559,1.559,0,0,0,46.654,7.222ZM22.374,44.7c-3.017-.645-7.2-3.045-10.924-8.25C8.139,31.826,4.22,23.58,3.894,10.237c.64.06,1.42.106,2.311.106A26.989,26.989,0,0,0,22.374,4.957Zm14.139-8.2c-3.779,5.254-8,7.629-11.025,8.227V40.17c5.8-1.272,14.3-9.734,14.3-27.5a13.809,13.809,0,0,1-2.834.253A18.537,18.537,0,0,1,25.488,8.938V4.853a26.977,26.977,0,0,0,16.305,5.49c.892,0,1.673-.046,2.313-.106C43.779,23.618,39.84,31.875,36.513,36.5Zm-11.025.437V12.732h0a21.845,21.845,0,0,0,11.076,3.3c-.757,11.137-5.292,17.56-9.332,20.061A8.915,8.915,0,0,1,25.488,36.939Z" fill="#f7b00a"/>
      </g>
    </g>
  </g>
</svg>
