<svg 
 xmlns="http://www.w3.org/2000/svg"
 xmlns:xlink="http://www.w3.org/1999/xlink"
 width="360px" height="509px">
<path fill-rule="evenodd"  fill="rgb(247, 176, 10)"
 d="M179.500,496.000 C183.090,496.000 186.000,498.910 186.000,502.500 C186.000,506.090 183.090,509.000 179.500,509.000 C175.910,509.000 173.000,506.090 173.000,502.500 C173.000,498.910 175.910,496.000 179.500,496.000 Z"/>
<path fill-rule="evenodd"  fill="rgb(252, 152, 26)"
 d="M29.000,119.999 L29.000,121.000 L-0.000,121.000 L-0.000,119.999 L29.000,119.999 Z"/>
<path fill-rule="evenodd"  fill="rgb(252, 152, 26)"
 d="M-0.000,119.999 L1.000,119.999 L1.000,462.000 L-0.000,462.000 L-0.000,119.999 Z"/>
<path fill-rule="evenodd"  fill="rgb(252, 152, 26)"
 d="M-0.000,462.000 L-0.000,461.000 L360.000,461.000 L360.000,462.000 L-0.000,462.000 Z"/>
<path fill-rule="evenodd"  fill="rgb(252, 152, 26)"
 d="M179.000,461.000 L180.000,461.000 L180.000,500.000 L179.000,500.000 L179.000,461.000 Z"/>
<path fill-rule="evenodd"  fill="rgb(252, 152, 26)"
 d="M75.000,358.000 L75.000,359.000 L1.000,359.000 L1.000,358.000 L75.000,358.000 Z"/>
<path fill-rule="evenodd"  fill="rgb(252, 152, 26)"
 d="M332.000,1.000 L332.000,-0.000 L360.000,-0.000 L360.000,1.000 L332.000,1.000 Z"/>
<path fill-rule="evenodd"  fill="rgb(252, 152, 26)"
 d="M359.000,-0.000 L360.000,-0.000 L360.000,462.000 L359.000,462.000 L359.000,-0.000 Z"/>
<path fill-rule="evenodd"  fill="rgb(252, 152, 26)"
 d="M311.000,242.000 L311.000,241.000 L360.000,241.000 L360.000,242.000 L311.000,242.000 Z"/>
</svg>